<?xml version="1.0" standalone="no"?>
<svg xmlns:xlink="http://www.w3.org/1999/xlink" id="wave" style="transform:rotate(0deg); transition: 0.3s" viewBox="0 0 1440 490" version="1.1" xmlns="http://www.w3.org/2000/svg"><defs><linearGradient id="sw-gradient-0" x1="0" x2="0" y1="1" y2="0"><stop stop-color="rgba(53, 142, 239, 1)" offset="0%"/><stop stop-color="rgba(53, 142, 239, 1)" offset="100%"/></linearGradient></defs><path style="transform:translate(0, 0px); opacity:1" fill="url(#sw-gradient-0)" d="M0,294L24,285.8C48,278,96,261,144,245C192,229,240,212,288,187.8C336,163,384,131,432,130.7C480,131,528,163,576,212.3C624,261,672,327,720,351.2C768,376,816,359,864,334.8C912,310,960,278,1008,277.7C1056,278,1104,310,1152,318.5C1200,327,1248,310,1296,318.5C1344,327,1392,359,1440,359.3C1488,359,1536,327,1584,294C1632,261,1680,229,1728,228.7C1776,229,1824,261,1872,302.2C1920,343,1968,392,2016,408.3C2064,425,2112,408,2160,351.2C2208,294,2256,196,2304,196C2352,196,2400,294,2448,285.8C2496,278,2544,163,2592,155.2C2640,147,2688,245,2736,245C2784,245,2832,147,2880,98C2928,49,2976,49,3024,114.3C3072,180,3120,310,3168,375.7C3216,441,3264,441,3312,400.2C3360,359,3408,278,3432,236.8L3456,196L3456,490L3432,490C3408,490,3360,490,3312,490C3264,490,3216,490,3168,490C3120,490,3072,490,3024,490C2976,490,2928,490,2880,490C2832,490,2784,490,2736,490C2688,490,2640,490,2592,490C2544,490,2496,490,2448,490C2400,490,2352,490,2304,490C2256,490,2208,490,2160,490C2112,490,2064,490,2016,490C1968,490,1920,490,1872,490C1824,490,1776,490,1728,490C1680,490,1632,490,1584,490C1536,490,1488,490,1440,490C1392,490,1344,490,1296,490C1248,490,1200,490,1152,490C1104,490,1056,490,1008,490C960,490,912,490,864,490C816,490,768,490,720,490C672,490,624,490,576,490C528,490,480,490,432,490C384,490,336,490,288,490C240,490,192,490,144,490C96,490,48,490,24,490L0,490Z"/></svg>