<?xml version="1.0" standalone="no"?>
<svg xmlns:xlink="http://www.w3.org/1999/xlink" id="wave" style="transform:rotate(180deg); transition: 0.3s" viewBox="0 0 1440 480" version="1.1" xmlns="http://www.w3.org/2000/svg"><defs><linearGradient id="sw-gradient-0" x1="0" x2="0" y1="1" y2="0"><stop stop-color="rgba(53, 142, 239, 1)" offset="0%"/><stop stop-color="rgba(53, 142, 239, 1)" offset="100%"/></linearGradient></defs><path style="transform:translate(0, 0px); opacity:1" fill="url(#sw-gradient-0)" d="M0,144L34.3,168C68.6,192,137,240,206,256C274.3,272,343,256,411,224C480,192,549,144,617,144C685.7,144,754,192,823,200C891.4,208,960,176,1029,136C1097.1,96,1166,48,1234,56C1302.9,64,1371,128,1440,128C1508.6,128,1577,64,1646,72C1714.3,80,1783,160,1851,192C1920,224,1989,208,2057,208C2125.7,208,2194,224,2263,208C2331.4,192,2400,144,2469,144C2537.1,144,2606,192,2674,232C2742.9,272,2811,304,2880,296C2948.6,288,3017,240,3086,240C3154.3,240,3223,288,3291,296C3360,304,3429,272,3497,288C3565.7,304,3634,368,3703,392C3771.4,416,3840,400,3909,400C3977.1,400,4046,416,4114,416C4182.9,416,4251,400,4320,368C4388.6,336,4457,288,4526,264C4594.3,240,4663,240,4731,200C4800,160,4869,80,4903,40L4937.1,0L4937.1,480L4902.9,480C4868.6,480,4800,480,4731,480C4662.9,480,4594,480,4526,480C4457.1,480,4389,480,4320,480C4251.4,480,4183,480,4114,480C4045.7,480,3977,480,3909,480C3840,480,3771,480,3703,480C3634.3,480,3566,480,3497,480C3428.6,480,3360,480,3291,480C3222.9,480,3154,480,3086,480C3017.1,480,2949,480,2880,480C2811.4,480,2743,480,2674,480C2605.7,480,2537,480,2469,480C2400,480,2331,480,2263,480C2194.3,480,2126,480,2057,480C1988.6,480,1920,480,1851,480C1782.9,480,1714,480,1646,480C1577.1,480,1509,480,1440,480C1371.4,480,1303,480,1234,480C1165.7,480,1097,480,1029,480C960,480,891,480,823,480C754.3,480,686,480,617,480C548.6,480,480,480,411,480C342.9,480,274,480,206,480C137.1,480,69,480,34,480L0,480Z"/></svg>